<svg width="110" height="59" viewBox="0 0 110 59" fill="none" xmlns="http://www.w3.org/2000/svg">
<g clip-path="url(#clip0_203_241)">
<path fill-rule="evenodd" clip-rule="evenodd" d="M85.9013 2.26033C85.9013 1.04542 86.8938 0.0605486 88.118 0.0605484L96.6348 0.0605469C97.859 0.0605467 98.8515 1.04542 98.8515 2.26033V9.14784C98.8515 10.3628 99.844 11.3476 101.068 11.3476H107.783C109.008 11.3476 110 12.3325 110 13.5474V44.5737C110 45.7886 109.008 46.7735 107.783 46.7735H101.068C99.844 46.7735 98.8515 47.7583 98.8515 48.9733V55.8608C98.8515 57.0757 97.859 58.0605 96.6348 58.0605H88.118C86.8938 58.0605 85.9013 57.0757 85.9013 55.8608V47.4087C85.9013 46.1937 86.8938 45.2089 88.118 45.2089H94.8332C96.0574 45.2089 97.0498 44.2241 97.0498 43.0091V15.112C97.0498 13.8971 96.0574 12.9122 94.8332 12.9122H88.118C86.8938 12.9122 85.9013 11.9273 85.9013 10.7124V2.26033Z" fill="#0A0A0A"/>
<path fill-rule="evenodd" clip-rule="evenodd" d="M24.0987 2.26033C24.0987 1.04542 23.1062 0.0605486 21.882 0.0605484L13.3651 0.0605469C12.1409 0.0605467 11.1485 1.04542 11.1485 2.26033V9.14784C11.1485 10.3628 10.156 11.3476 8.93181 11.3476H2.21666C0.992434 11.3476 2.81862e-06 12.3325 2.81862e-06 13.5474L0 44.5737C0 45.7886 0.992429 46.7735 2.21666 46.7735H8.93183C10.156 46.7735 11.1485 47.7583 11.1485 48.9733V55.8608C11.1485 57.0757 12.1409 58.0605 13.3651 58.0605H21.882C23.1062 58.0605 24.0987 57.0757 24.0987 55.8608V47.4087C24.0987 46.1937 23.1062 45.2089 21.882 45.2089H15.1668C13.9426 45.2089 12.9502 44.2241 12.9502 43.0091V15.112C12.9502 13.8971 13.9426 12.9122 15.1668 12.9122H21.882C23.1062 12.9122 24.0987 11.9273 24.0987 10.7124V2.26033Z" fill="#0A0A0A"/>
<path fill-rule="evenodd" clip-rule="evenodd" d="M47.1036 15.2769C47.1036 14.2646 47.9306 13.4438 48.9509 13.4438L58.741 13.4439L67.6681 13.4439C68.4046 13.4439 69.0707 13.8781 69.3634 14.5488L72.3971 21.5047C72.6897 22.1755 73.3558 22.6096 74.0924 22.6096H80.3534C81.3736 22.6096 82.2007 23.4303 82.2007 24.4428V44.9741C82.2007 45.9865 81.3736 46.8072 80.3534 46.8072H72.4104C71.3901 46.8072 70.5631 45.9865 70.5631 44.9741V25.9094C70.5631 24.8968 69.7361 24.0761 68.716 24.0761H60.5883C59.568 24.0761 58.741 24.8968 58.741 25.9094V44.974C58.741 45.9865 57.914 46.8072 56.8939 46.8072H48.9509C47.9306 46.8072 47.1036 45.9865 47.1036 44.974V15.2769Z" fill="#0A0A0A"/>
<path d="M28.2665 15.2769C28.2665 14.2646 29.0936 13.4438 30.1137 13.4438H38.0567C39.0769 13.4438 39.904 14.2646 39.904 15.2769V44.974C39.904 45.9865 39.0769 46.8072 38.0567 46.8072H30.1137C29.0936 46.8072 28.2665 45.9865 28.2665 44.974V15.2769Z" fill="#0A0A0A"/>
</g>
<defs>
<clipPath id="clip0_203_241">
<rect width="110" height="58" fill="white" transform="translate(0 0.0605469)"/>
</clipPath>
</defs>
</svg>
