<svg width="150" height="79" viewBox="0 0 150 79" fill="none" xmlns="http://www.w3.org/2000/svg">
<path d="M74.3134 57.1138C71.2664 57.1276 68.2754 57.9366 65.6344 59.4613C62.2924 61.4476 60.7324 63.3346 60.7324 63.9365C60.7324 64.2977 61.4944 65.3601 62.1124 65.3601C62.5144 65.3601 62.9524 64.5776 63.7714 63.8553C64.7524 62.9735 65.8144 62.2301 65.8144 62.0104C65.7945 61.7317 65.6898 61.4659 65.5144 61.249C66.8134 60.3461 69.7534 58.76 74.1934 58.76C76.1734 58.76 77.4934 59.4432 77.4934 60.7072C77.4934 64.0359 73.1344 67.3284 69.9724 68.1681C69.5734 68.2704 69.3334 68.3908 69.3334 68.6105C69.3334 68.9325 70.4134 69.9136 71.1514 69.9136C74.1724 69.9136 79.2124 65.4203 79.2124 62.0315C79.2004 59.5425 76.8724 57.1138 74.3134 57.1138Z" fill="#231F20"/>
<path d="M89.2915 67.7766C89.1925 67.7766 89.0905 67.9362 88.7515 68.4177C87.9325 69.5613 86.5315 71.1655 85.7305 71.1655C85.6616 71.1718 85.5921 71.1635 85.5265 71.1412C85.461 71.1189 85.4008 71.0831 85.3499 71.036C85.299 70.9889 85.2586 70.9316 85.2311 70.8679C85.2036 70.8041 85.1898 70.7353 85.1905 70.6659C85.1905 70.3047 85.2925 69.9827 86.1925 68.0174C87.0925 66.0521 87.2515 65.4081 87.2515 65.0259C87.2515 64.6436 86.1115 63.9033 85.7125 63.9033C85.5115 63.9033 85.3705 64.0237 85.3105 64.2855C84.7808 65.8146 84.0482 67.2653 83.1325 68.5983C81.8515 70.4642 80.7715 71.2858 80.4115 71.2858C80.2105 71.2858 80.0305 71.0661 80.0305 70.7441C80.0305 69.7209 80.4715 68.7578 81.3325 66.9731C82.1935 65.1884 82.2715 65.0891 82.2715 64.6256C82.2715 64.1621 80.8915 63.4819 80.5915 63.4819C80.4715 63.4819 80.3305 63.6023 80.2105 63.8852C79.7935 64.8664 77.8525 67.897 77.8525 69.9616C77.8525 71.6681 79.3525 72.3904 80.4715 72.3904C81.5905 72.3904 82.6105 71.1053 83.1715 70.2235C83.1715 71.2257 84.4105 72.3693 85.6915 72.3693C87.0325 72.3693 88.5115 70.6448 89.2705 69.6426C89.6905 69.1009 89.7715 68.8601 89.7715 68.5591C89.7715 68.2582 89.4505 67.7766 89.2915 67.7766Z" fill="#231F20"/>
<path d="M74.646 71.5146C73.011 71.5748 71.856 71.3912 67.887 71.2828H67.506C67.7401 70.1411 68.091 69.0267 68.553 67.9572C70.494 63.7648 72.234 62.1396 72.234 61.4565C72.234 60.7733 70.533 59.9517 70.371 59.9517C70.209 59.9517 70.134 60.0329 70.134 60.2526C70.134 60.674 68.514 62.561 66.594 66.3922C65.8739 67.9397 65.3615 69.5762 65.07 71.2588C63.075 71.2889 62.028 71.4755 61.2 71.9359C60.219 72.4807 60.129 73.9313 60.3 74.2292C60.471 74.5272 60.627 74.5302 60.855 74.4459C62.0989 74.0494 63.3885 73.8147 64.692 73.7477C64.527 75.1562 64.479 76.2246 64.479 76.5256C64.479 77.287 65.898 78.0695 66.198 78.0695C66.498 78.0695 66.639 77.8679 66.639 77.4886C66.639 77.293 66.759 75.6377 67.068 73.6454H67.545C71.832 73.6243 74.4 74.0065 74.766 73.8019C75.132 73.5972 75.405 72.1857 75.201 71.8185C75.1579 71.7112 75.079 71.6223 74.9778 71.5669C74.8765 71.5114 74.7593 71.4929 74.646 71.5146V71.5146Z" fill="#231F20"/>
<path d="M16.863 34.6318L20.622 44.2626H20.7L24.24 34.6318H28.5L29.172 36.3894L28.527 36.4617C28.4336 36.4603 28.341 36.4792 28.2557 36.5172C28.1703 36.5552 28.0942 36.6113 28.0326 36.6817C27.9709 36.7521 27.9253 36.8351 27.8988 36.925C27.8723 37.0148 27.8655 37.1093 27.879 37.202L28.572 48.1269L29.772 48.1961L30.447 50.026H24.66V48.2654L25.398 48.1961C25.86 48.1721 25.929 47.9644 25.908 47.3866L25.467 38.7068H25.422L21.66 47.6123L19.539 48.2894L15.915 38.7761H15.87L15.363 48.1269L16.539 48.1961V50.02H10.8L11.472 48.2593L12.165 48.1901C12.603 48.1209 12.765 47.9825 12.789 47.4046L13.527 36.5249L12.315 36.4767L12.99 34.6469L16.863 34.6318Z" fill="#231F20"/>
<path d="M32.538 50.0201L33.213 48.2836L33.768 48.2144C34.296 48.1451 34.389 47.8893 34.551 47.4981L38.289 36.5943L37.089 36.4558L37.764 34.626H42.12L46.896 48.097L47.736 48.1903L48.408 50.0201H42.582V48.2836L43.341 48.1903C43.782 48.1451 43.92 47.9134 43.758 47.474L43.113 45.6442H37.851L37.02 48.1211L38.196 48.1903V50.0201H32.538ZM38.313 43.6999H42.651L40.527 37.148H40.458L38.313 43.6999Z" fill="#231F20"/>
<path d="M59.2917 47.4858V43.805L58.1277 43.7117L57.4557 41.906H63.5067L63.1677 43.6425L62.5467 43.7117C62.1537 43.781 61.9677 43.9224 61.9677 44.3829V48.816C60.6777 49.7189 58.7607 50.2516 56.7297 50.2516C52.2777 50.2516 49.7637 47.6814 49.7637 42.3123C49.7637 36.3382 53.2707 34.3037 57.2637 34.3037C59.1117 34.3037 60.8877 34.695 61.9017 35.2277V37.3103L59.6637 38.147V37.4728C59.6637 37.0816 59.6187 36.895 59.2497 36.7806C58.6356 36.6485 58.0087 36.5859 57.3807 36.594C54.1257 36.594 52.6737 38.7459 52.6737 42.1738C52.6737 45.8546 53.8737 48.0305 56.8017 48.0305C57.6987 48.0426 58.7397 47.8319 59.2917 47.4858Z" fill="#231F20"/>
<path d="M79.8686 49.3278L77.1896 50.02L70.4066 38.8243H70.3616V48.1059L71.6306 48.1751V50.02H66.0566L66.7286 48.2835L67.1306 48.1902C67.5236 48.121 67.6856 48.0277 67.6856 47.5431V36.5099L66.1466 36.4407L66.8216 34.6108H70.5686L77.1686 45.6049H77.2136V36.5099L75.9446 36.4407V34.6108H81.4976L80.8226 36.3715L80.4446 36.4407C80.0066 36.5099 79.8686 36.6032 79.8686 37.1329V49.3278Z" fill="#231F20"/>
<path d="M82.8154 50.0201L83.4904 48.2836L83.7004 48.2144C84.2314 48.1451 84.3214 47.8893 84.4834 47.4981L88.2214 36.5943L87.0214 36.4558L87.6964 34.626H92.0524L96.8284 48.097L97.6684 48.1903L98.3434 50.0201H92.5204V48.2836L93.2824 48.1903C93.7204 48.1451 93.8584 47.9134 93.6964 47.474L93.0514 45.6442H87.7894L86.9584 48.1211L88.1374 48.1903V50.0201H82.8154ZM88.2514 43.6999H92.5894L90.4654 37.148H90.3964L88.2514 43.6999Z" fill="#231F20"/>
<path d="M103.914 36.6724H101.793C101.331 36.6724 101.214 36.8801 101.214 37.2743V38.1411L99 37.3797V34.6108H111.621V37.3797L109.383 38.1381V37.2924C109.383 36.8981 109.29 36.6694 108.807 36.6694H106.731V48.1059L108.03 48.1751L108.705 50.005H101.892L102.567 48.2684L103.269 48.1751C103.8 48.1541 103.914 47.9916 103.914 47.4589V36.6724Z" fill="#231F20"/>
<path d="M114.6 48.2684L114.795 48.1992C115.419 48.13 115.533 48.0367 115.533 47.4107V36.531L114.648 36.4407L113.973 34.6108H124.809V37.4248L122.571 38.099V36.9343C122.571 36.4949 122.433 36.6724 121.971 36.6724H118.356V41.0695H123.873V43.2003H118.356V47.9434H122.235C122.694 47.9434 122.787 47.7839 122.787 47.3204V47.1308L125.025 46.4657V50.02H113.925L114.6 48.2684Z" fill="#231F20"/>
<path d="M135.378 45.7465C135.378 44.2628 134.13 43.7301 132.471 43.2907C130.323 42.7369 128.1 41.834 128.1 38.8846C128.1 36.0616 130.245 34.3491 133.5 34.3491C134.976 34.3491 136.638 34.626 137.814 35.1828V37.3798L135.576 38.1382V37.455C135.576 37.0608 135.531 36.8772 135.162 36.7598C134.623 36.6437 134.075 36.5822 133.524 36.5762C132.3 36.5762 131.031 37.0156 131.031 38.5445C131.031 40.0252 132.276 40.4646 134.055 41.0214C136.176 41.7136 138.369 42.454 138.369 45.5118C138.369 48.5695 136.338 50.279 132.645 50.279C131.055 50.279 129.345 50.0713 128.076 49.4935V47.2212L130.317 46.4207V47.1309C130.317 47.5252 130.386 47.7088 130.731 47.8261C131.329 47.9681 131.941 48.0378 132.555 48.0338C134.04 48.0368 135.378 47.5523 135.378 45.7465Z" fill="#231F20"/>
<path d="M12.6543 27.2614V12.2134H22.5843V13.1403H13.6413V18.8947H21.0603V19.8187H13.6413V27.2614H12.6543Z" fill="#231F20"/>
<path d="M31.254 27.2614V12.2134H32.241V27.2614H31.254Z" fill="#231F20"/>
<path d="M42.09 27.2615V12.2135H42.972L53.199 25.552V12.2014H54.186V27.2495H53.328L43.077 13.9049V27.2615H42.09Z" fill="#231F20"/>
<path d="M62.4004 27.2615L69.2194 12.1172H70.1434L76.9204 27.2615H75.8914L73.8964 22.8314H65.4304L63.4384 27.2615H62.4004ZM65.7904 21.9706H73.5304L69.6574 13.4083L65.7904 21.9706Z" fill="#231F20"/>
<path d="M85.083 27.2615V12.2135H85.962L96.192 25.552V12.2014H97.176V27.2495H96.321L86.07 13.9049V27.2615H85.083Z" fill="#231F20"/>
<path d="M108.444 25.3413C107.007 23.8575 106.278 22.0066 106.278 19.7464C106.278 17.4862 107.007 15.6383 108.444 14.1756C109.138 13.4511 109.976 12.8799 110.902 12.4985C111.829 12.1171 112.825 11.9339 113.826 11.9606C115.341 11.9232 116.833 12.3346 118.116 13.1433V14.2057C116.86 13.3421 115.37 12.8843 113.847 12.8935C112.975 12.8747 112.109 13.0393 111.304 13.3767C110.499 13.7142 109.773 14.217 109.173 14.8528C107.907 16.1439 107.286 17.7781 107.286 19.7344C107.258 20.637 107.411 21.5362 107.735 22.3787C108.059 23.2213 108.548 23.9902 109.173 24.64C109.78 25.2711 110.51 25.7692 111.318 26.1028C112.126 26.4364 112.995 26.5983 113.868 26.5782C115.536 26.619 117.163 26.062 118.458 25.0072V26.1027C117.212 27.0517 115.668 27.5252 113.826 27.5232C112.828 27.5507 111.834 27.3711 110.908 26.9956C109.982 26.6202 109.143 26.057 108.444 25.3413Z" fill="#231F20"/>
<path d="M127.002 27.2614V12.2134H137.037V13.1403H127.986V18.6991H135.471V19.623H127.986V26.3345H137.379V27.2584L127.002 27.2614Z" fill="#231F20"/>
<path d="M0 0.0605469V67.9633H51.567V64.6527H3.3V3.37112H146.7V64.6527H98.496V67.9633H150V0.0605469H0Z" fill="#231F20"/>
</svg>
