<svg width="212" height="82" viewBox="0 0 212 82" fill="none" xmlns="http://www.w3.org/2000/svg">
<path d="M124.092 28.9208C121.426 28.9208 119.332 29.4909 117.236 30.629C117.236 24.5538 117.236 19.0488 117.428 17.1509L104.666 19.4281V20.5673L105.999 20.757C107.712 21.1363 108.286 22.0847 108.663 24.3641C109.047 28.9208 108.855 53.2227 108.663 57.2103C112.091 57.9701 115.711 58.5403 119.33 58.5403C129.425 58.5403 135.519 52.2743 135.519 42.4011C135.519 34.6177 130.567 28.9208 124.092 28.9208V28.9208ZM119.711 56.4505C118.949 56.4505 117.995 56.4505 117.426 56.2619C117.234 53.6042 117.045 42.4011 117.234 32.5291C118.377 32.1486 119.138 31.959 120.092 31.959C124.284 31.959 126.57 36.895 126.57 42.9691C126.568 50.5661 123.711 56.4505 119.711 56.4505V56.4505ZM56.6698 17.9096H23.1492V19.6178L25.0541 19.8075C27.5287 20.1868 28.4822 21.7054 28.8617 25.3125C29.4347 32.1475 29.2433 44.4898 28.8617 50.3731C28.4811 53.9814 27.5298 55.6907 25.0541 55.8782L23.1492 56.2597V57.7783H44.6707V56.2597L42.3852 55.8782C39.9095 55.6896 38.957 53.9814 38.5765 50.3731C38.3851 47.904 38.1948 43.9164 38.1948 38.9814L42.7657 39.1711C45.6231 39.1711 46.955 41.4495 47.5269 44.6762H49.2415V31.2002H47.5269C46.9539 34.4281 45.6231 36.7053 42.7657 36.7053L38.1959 36.8961C38.1959 30.4404 38.3862 24.3652 38.5776 20.7581H45.2426C50.3865 20.7581 53.0525 23.9848 54.9563 29.6817L56.8612 29.1116L56.6698 17.9096V17.9096Z" fill="white"/>
<path d="M67.5263 28.5415C77.0497 28.5415 81.8109 34.9971 81.8109 43.5403C81.8109 51.7042 76.4778 58.5414 66.9544 58.5414C57.4321 58.5414 52.6709 52.0846 52.6709 43.5403C52.6709 35.3765 58.0029 28.5415 67.5263 28.5415V28.5415ZM66.9544 30.4404C62.764 30.4404 61.6213 36.1363 61.6213 43.5403C61.6213 50.7547 63.5262 56.6402 67.336 56.6402C71.7134 56.6402 72.8583 50.9444 72.8583 43.5403C72.8583 36.326 70.9556 30.4404 66.9544 30.4404ZM137.994 43.7311C137.994 35.9466 142.945 28.5415 152.659 28.5415C160.656 28.5415 164.466 34.4281 164.466 42.2115H146.754C146.562 49.2362 149.99 54.363 156.848 54.363C159.896 54.363 161.419 53.6053 163.325 52.2754L164.085 53.2238C162.18 55.8815 157.991 58.5414 152.659 58.5414C144.088 58.5403 137.994 52.4651 137.994 43.7311V43.7311ZM146.754 40.1239L155.705 39.9331C155.705 36.1363 155.133 30.4404 151.896 30.4404C148.66 30.4404 146.943 35.7558 146.754 40.1239V40.1239ZM187.134 30.0611C184.849 29.1105 181.802 28.5415 178.374 28.5415C171.328 28.5415 166.945 32.7177 166.945 37.6548C166.945 42.5919 170.18 44.6795 174.756 46.1991C179.517 47.9062 180.851 49.2362 180.851 51.5145C180.851 53.7928 179.136 55.8804 176.088 55.8804C172.471 55.8804 169.803 53.7928 167.709 48.0959L166.375 48.4774L166.566 56.831C168.851 57.7794 173.041 58.5403 176.66 58.5403C184.089 58.5403 188.851 54.7412 188.851 48.8568C188.851 44.8692 186.755 42.5919 181.803 40.6918C176.469 38.6043 174.566 37.2754 174.566 34.8063C174.566 32.3383 176.283 30.629 178.568 30.629C181.994 30.629 184.28 32.7177 185.997 37.8445L187.329 37.4651L187.134 30.0611V30.0611ZM106.569 29.3013C103.332 27.4045 97.6177 28.3518 94.5711 35.1879L94.7603 28.5426L82.0012 31.0106V32.1497L83.3342 32.3394C85.0499 32.5302 85.8099 33.4786 86.0013 35.9477C86.3818 40.5044 86.1915 48.4796 86.0013 52.4662C85.8099 54.7423 85.0499 55.8815 83.3342 56.0723L82.0012 56.263V57.7816H99.7128V56.263L97.4274 56.0723C95.5236 55.8815 94.9517 54.7423 94.7603 52.4662C94.3798 48.8579 94.3798 41.6435 94.5711 37.0869C95.5225 35.7569 99.7128 34.6188 103.522 37.0869L106.569 29.3013V29.3013Z" fill="white"/>
</svg>
