<svg width="25" height="24" viewBox="0 0 25 24" fill="none" xmlns="http://www.w3.org/2000/svg">
<path d="M4.7112 0.115004C2.93393 0.509953 1.31652 1.83585 0.536025 3.53789C-0.0187841 4.73214 -0.0187841 4.78856 0.00942652 12.3302L0.0376371 19.2042L0.291533 19.8907C0.648867 20.878 1.07203 21.5457 1.77729 22.2603C2.49196 22.9656 3.15961 23.3888 4.14698 23.7461L4.83344 24H12.0272H19.2209L19.9073 23.7461C20.8947 23.3888 21.5623 22.9656 22.277 22.2603C22.9823 21.5457 23.4054 20.878 23.7628 19.8907L24.0167 19.2042V12.0105V4.81677L23.7628 4.13032C23.4054 3.14294 22.9823 2.47529 22.277 1.76062C21.5623 1.05536 20.8947 0.632199 19.9073 0.274864L19.2209 0.0209687L12.2622 0.00216162C6.63892 -0.00724192 5.19078 0.0115652 4.7112 0.115004ZM19.2303 4.16793C20.1142 4.59109 20.2929 5.96401 19.5406 6.59404C18.1489 7.76949 16.2776 5.96401 17.406 4.53467C17.7915 4.03628 18.6096 3.87642 19.2303 4.16793ZM13.2966 7.16766C14.5661 7.49678 15.8168 8.48416 16.4186 9.62198C17.4718 11.5967 17.1239 13.9664 15.5535 15.5368C13.9831 17.1072 11.6134 17.4551 9.63865 16.4019C8.50082 15.8001 7.51345 14.5494 7.18433 13.28C7.00566 12.5653 7.00566 11.4557 7.18433 10.741C7.6263 9.06718 9.04623 7.62843 10.7201 7.17706C11.3971 6.9984 12.6102 6.98899 13.2966 7.16766Z" fill="white"/>
</svg>
