<svg width="181" height="31" viewBox="0 0 181 31" fill="none" xmlns="http://www.w3.org/2000/svg">
<path d="M92.3988 17.0265C91.7514 17.0265 91.104 16.7835 90.6185 16.2976L90.578 16.2571V18.1199C91.1445 18.4034 91.7514 18.5248 92.3988 18.5248C93.4104 18.5248 94.4624 18.1199 95.2312 17.3505L94.1792 16.2976C93.6531 16.824 93.0462 17.0265 92.3988 17.0265Z" fill="url(#paint0_linear_0_1)"/>
<path d="M90.6185 12.7744C91.104 12.2884 91.7514 12.0455 92.3988 12.0455C93.0462 12.0455 93.6936 12.2884 94.1792 12.7744L95.2312 11.7215C94.4624 10.9521 93.4104 10.5471 92.3988 10.5471C91.5491 10.5471 90.6589 10.8306 89.9711 11.357C90.2543 11.843 90.4566 12.3694 90.5375 12.8959C90.5375 12.8149 90.578 12.7744 90.6185 12.7744Z" fill="url(#paint1_linear_0_1)"/>
<path d="M87.341 13.9893V24.3967H87.7052H88.9595V13.6653C88.9595 11.9645 87.6242 10.7091 85.8843 10.5876C85.8034 10.5876 85.7225 10.5876 85.6416 10.5876C85.5202 10.5876 85.3988 10.5876 85.3179 10.6281C84.3872 10.7091 83.578 11.0736 83.052 11.6C82.4855 10.9926 81.5549 10.6281 80.4624 10.6281C79.7745 10.6281 79.2485 10.8306 78.7225 11.1546V10.6281H78.3583H77.104V18.5653H78.3583H78.7225V14.1108C78.7225 13.0579 79.4104 12.248 80.4624 12.248C81.5144 12.248 82.2023 12.8959 82.2023 13.7463V18.6058H83.0115H83.8208V13.7463C83.8208 12.9364 84.5491 12.248 85.5606 12.248C86.6531 12.167 87.341 12.9364 87.341 13.9893Z" fill="url(#paint2_linear_0_1)"/>
<path d="M87.2601 0.868652V2.65047C93.9364 3.17692 99.1966 8.80584 99.1966 15.6496C99.1966 22.4934 93.9364 28.0819 87.2601 28.6488V30.4306C94.9075 29.8637 100.977 23.4653 100.977 15.6901C100.977 7.91493 94.9075 1.3951 87.2601 0.868652Z" fill="url(#paint3_linear_0_1)"/>
<path d="M85.1156 28.6083C78.4393 28.0818 73.1791 22.4529 73.1791 15.6091C73.1791 8.76531 78.4393 3.17689 85.1156 2.60994V0.828125C77.4682 1.39507 71.3988 7.83391 71.3988 15.6091C71.3988 23.3843 77.4682 29.8232 85.1156 30.3496V28.6083Z" fill="url(#paint4_linear_0_1)"/>
<path d="M16.9769 6.78101H16.8151L16.7341 6.90249L9.69367 15.7711L2.69367 6.90249L2.57228 6.78101H2.41043H1.19656H0.832397V7.10497V24.1537V24.4777H1.19656H3.30061H3.66477V24.1537V11.924L9.4509 19.3347L9.69367 19.6587L9.9769 19.3347L15.763 11.924V24.1537V24.4777H16.0867H18.2312H18.5549V24.1537V7.10497V6.78101H18.2312H16.9769Z" fill="#1D1F33"/>
<path d="M46.8382 6.78101H46.474V7.10497V19.4562L36.2775 6.90249L36.1966 6.78101H36.0347H34.7804H34.4567V7.10497V24.1537V24.4777H34.7804H36.8844H37.2486V24.1537V11.8025L47.4451 24.3562L47.5665 24.4777H47.7283H48.9422H49.3064V24.1537V7.10497V6.78101H48.9422H46.8382Z" fill="#1D1F33"/>
<path d="M56.0636 14.2727H55.6995V14.6372V16.6215V16.9454H56.0636H65.2081H65.5318V16.6215V14.6372V14.2727H65.2081H56.0636Z" fill="#1D1F33"/>
<path d="M56.0636 21.8049H55.6995V22.1694V24.1537V24.4777H56.0636H65.2081H65.5318V24.1537V22.1694V21.8049H65.2081H56.0636Z" fill="#1D1F33"/>
<path d="M56.0636 6.74048H55.6995V7.10494V9.08924V9.4537H56.0636H65.2081H65.5318V9.08924V7.10494V6.74048H65.2081H56.0636Z" fill="#1D1F33"/>
<path d="M25.3122 6.74048H24.9885V7.10494V9.04874V9.41321H25.3122H27.4567H27.7804V9.04874V7.10494V6.74048H27.4567H25.3122Z" fill="#1D1F33"/>
<path d="M25.3122 10.8306H24.9885V11.195V24.1537V24.4777H25.3122H27.4567H27.7804V24.1537V11.195V10.8306H27.4567H25.3122Z" fill="#1D1F33"/>
<path d="M123.676 17.8364L121.653 17.1884L121.329 17.0669L121.249 17.3909C120.844 18.7273 120.116 19.7802 119.064 20.5901C118.012 21.4 116.757 21.8049 115.382 21.8049C114.249 21.8049 113.197 21.5215 112.266 20.9545C111.335 20.3876 110.607 19.6182 110.081 18.6868C109.555 17.7554 109.312 16.7025 109.312 15.5686C109.312 14.4347 109.595 13.3413 110.121 12.4099C110.647 11.438 111.416 10.7091 112.347 10.1421C112.509 10.0611 112.671 9.98016 112.832 9.89916V7.06445C112.468 7.14544 112.185 7.26693 111.902 7.38842C110.809 7.87437 109.838 8.48181 109.029 9.29173C108.22 10.1016 107.613 11.033 107.127 12.1264C106.682 13.2198 106.439 14.3537 106.439 15.5281C106.439 16.7025 106.682 17.8768 107.127 18.9702C107.572 20.0636 108.22 20.995 109.029 21.8049C109.798 22.6149 110.769 23.2223 111.861 23.7083C112.954 24.1942 114.168 24.4372 115.382 24.4372C116.676 24.4372 117.931 24.1942 119.064 23.6678C120.237 23.1818 121.249 22.4529 122.098 21.481C122.948 20.5496 123.555 19.4157 123.96 18.2008L124 17.9173L123.676 17.8364Z" fill="#1D1F33"/>
<path d="M123.879 12.9768C123.312 11.114 122.22 9.57519 120.642 8.4413C119.104 7.30742 117.324 6.74048 115.382 6.74048V9.41321C116.717 9.41321 117.89 9.85866 118.942 10.6281C120.035 11.438 120.763 12.4909 121.168 13.7868L121.249 14.1107L121.572 14.0297L123.595 13.4223L123.919 13.3413L123.879 12.9768Z" fill="#1D1F33"/>
<path d="M141.884 21.805H133.104V17.1479H130.272V24.1537V24.4777H130.636H141.884H142.249V24.1537V22.1694V21.805H141.884Z" fill="#1D1F33"/>
<path d="M133.104 14.4752V7.10494V6.74048H132.74H130.636H130.272V7.10494V14.4752H133.104Z" fill="#1D1F33"/>
<path d="M179.717 16.5405C179.191 15.8926 178.543 15.4066 177.775 15.0422C178.665 14.1513 179.11 13.0984 179.11 11.8835C179.11 10.4256 178.584 9.21076 177.613 8.23886C176.601 7.26696 175.387 6.78101 173.971 6.78101H167.983H167.659V7.10497V10.4661H170.451V9.41324H173.89C174.618 9.41324 175.225 9.65621 175.711 10.1422C176.197 10.6281 176.48 11.1951 176.48 11.8835C176.48 12.5719 176.237 13.1389 175.751 13.6248C175.266 14.1108 174.699 14.3537 174.012 14.3537H170.451V13.2198H167.659V24.1942V24.5182H167.983H175.549C177.006 24.5182 178.22 24.0322 179.231 23.0603C180.202 22.0884 180.728 20.8736 180.728 19.4157C180.688 18.2818 180.364 17.3504 179.717 16.5405ZM177.127 21.1165C176.601 21.6025 175.994 21.8455 175.306 21.8455H170.41V16.824H175.306C176.035 16.824 176.642 17.067 177.127 17.5529C177.613 18.0389 177.896 18.6463 177.896 19.3347C177.896 20.0637 177.653 20.6711 177.127 21.1165Z" fill="#1D1F33"/>
<path d="M152.971 21.6025C152.688 21.481 152.405 21.3595 152.121 21.157C151.474 20.7116 150.988 20.1446 150.665 19.4562C150.341 18.7678 150.179 17.9984 150.179 17.1884V7.10497V6.78101H149.856H147.711H147.387V7.10497V17.2694C147.387 18.6058 147.711 19.8207 148.278 20.9141C148.884 22.0075 149.734 22.8984 150.786 23.5058C151.474 23.9108 152.202 24.1942 152.971 24.3157V21.6025V21.6025Z" fill="#1D1F33"/>
<path d="M160.942 6.74048H158.798H158.474V7.06445V12.8554V13.1388V17.1479C158.474 18.4438 158.069 19.5372 157.26 20.4281C156.775 20.9545 156.249 21.319 155.642 21.562V24.3157C156.451 24.1537 157.22 23.8702 157.907 23.4653C158.96 22.8173 159.809 21.9264 160.416 20.833C160.983 19.7396 161.306 18.5248 161.306 17.2289V13.1793V12.8958V7.10494V6.78097H160.942V6.74048Z" fill="#1D1F33"/>
<defs>
<linearGradient id="paint0_linear_0_1" x1="92.3217" y1="-0.738626" x2="93.2321" y2="27.8242" gradientUnits="userSpaceOnUse">
<stop stop-color="#FAB900"/>
<stop offset="0.0301616" stop-color="#F8AF0B"/>
<stop offset="0.1883" stop-color="#F17D41"/>
<stop offset="0.325" stop-color="#EB5969"/>
<stop offset="0.4334" stop-color="#E74381"/>
<stop offset="0.5" stop-color="#E63B8A"/>
<stop offset="0.5774" stop-color="#E23B8A"/>
<stop offset="0.6573" stop-color="#D53C8B"/>
<stop offset="0.7382" stop-color="#C13E8D"/>
<stop offset="0.8199" stop-color="#A4418F"/>
<stop offset="0.9022" stop-color="#7F4492"/>
<stop offset="0.984" stop-color="#524896"/>
<stop offset="1" stop-color="#484997"/>
</linearGradient>
<linearGradient id="paint1_linear_0_1" x1="92.2036" y1="-0.734908" x2="93.114" y2="27.828" gradientUnits="userSpaceOnUse">
<stop stop-color="#FAB900"/>
<stop offset="0.0301616" stop-color="#F8AF0B"/>
<stop offset="0.1883" stop-color="#F17D41"/>
<stop offset="0.325" stop-color="#EB5969"/>
<stop offset="0.4334" stop-color="#E74381"/>
<stop offset="0.5" stop-color="#E63B8A"/>
<stop offset="0.5774" stop-color="#E23B8A"/>
<stop offset="0.6573" stop-color="#D53C8B"/>
<stop offset="0.7382" stop-color="#C13E8D"/>
<stop offset="0.8199" stop-color="#A4418F"/>
<stop offset="0.9022" stop-color="#7F4492"/>
<stop offset="0.984" stop-color="#524896"/>
<stop offset="1" stop-color="#484997"/>
</linearGradient>
<linearGradient id="paint2_linear_0_1" x1="82.527" y1="-0.42646" x2="83.4373" y2="28.1364" gradientUnits="userSpaceOnUse">
<stop stop-color="#FAB900"/>
<stop offset="0.0301616" stop-color="#F8AF0B"/>
<stop offset="0.1883" stop-color="#F17D41"/>
<stop offset="0.325" stop-color="#EB5969"/>
<stop offset="0.4334" stop-color="#E74381"/>
<stop offset="0.5" stop-color="#E63B8A"/>
<stop offset="0.5774" stop-color="#E23B8A"/>
<stop offset="0.6573" stop-color="#D53C8B"/>
<stop offset="0.7382" stop-color="#C13E8D"/>
<stop offset="0.8199" stop-color="#A4418F"/>
<stop offset="0.9022" stop-color="#7F4492"/>
<stop offset="0.984" stop-color="#524896"/>
<stop offset="1" stop-color="#484997"/>
</linearGradient>
<linearGradient id="paint3_linear_0_1" x1="93.3647" y1="-0.771876" x2="94.275" y2="27.791" gradientUnits="userSpaceOnUse">
<stop stop-color="#FAB900"/>
<stop offset="0.0301616" stop-color="#F8AF0B"/>
<stop offset="0.1883" stop-color="#F17D41"/>
<stop offset="0.325" stop-color="#EB5969"/>
<stop offset="0.4334" stop-color="#E74381"/>
<stop offset="0.5" stop-color="#E63B8A"/>
<stop offset="0.5774" stop-color="#E23B8A"/>
<stop offset="0.6573" stop-color="#D53C8B"/>
<stop offset="0.7382" stop-color="#C13E8D"/>
<stop offset="0.8199" stop-color="#A4418F"/>
<stop offset="0.9022" stop-color="#7F4492"/>
<stop offset="0.984" stop-color="#524896"/>
<stop offset="1" stop-color="#484997"/>
</linearGradient>
<linearGradient id="paint4_linear_0_1" x1="77.9836" y1="-0.281664" x2="78.894" y2="28.2812" gradientUnits="userSpaceOnUse">
<stop stop-color="#FAB900"/>
<stop offset="0.0301616" stop-color="#F8AF0B"/>
<stop offset="0.1883" stop-color="#F17D41"/>
<stop offset="0.325" stop-color="#EB5969"/>
<stop offset="0.4334" stop-color="#E74381"/>
<stop offset="0.5" stop-color="#E63B8A"/>
<stop offset="0.5774" stop-color="#E23B8A"/>
<stop offset="0.6573" stop-color="#D53C8B"/>
<stop offset="0.7382" stop-color="#C13E8D"/>
<stop offset="0.8199" stop-color="#A4418F"/>
<stop offset="0.9022" stop-color="#7F4492"/>
<stop offset="0.984" stop-color="#524896"/>
<stop offset="1" stop-color="#484997"/>
</linearGradient>
</defs>
</svg>
