<svg width="270" height="37" viewBox="0 0 270 37" fill="none" xmlns="http://www.w3.org/2000/svg">
<path fill-rule="evenodd" clip-rule="evenodd" d="M9.55629 36.6039V20.293L7.30212 19.2703V36.6039H0.130127V0.812256H7.30212V15.0778L9.55629 16.1001V0.812256H16.7279V36.6039H9.55629Z" fill="#16325C"/>
<path fill-rule="evenodd" clip-rule="evenodd" d="M19.4934 7.20382C19.4934 4.69833 19.8005 0.812256 24.8207 0.812256H30.7631C35.7833 0.812256 36.0904 4.69833 36.0904 7.20382V30.2123C36.0904 32.7178 35.7829 36.6039 30.7631 36.6039H24.8207C19.8005 36.6039 19.4934 32.7178 19.4934 30.2123V7.20382ZM28.9188 5.92551C28.9188 5.31192 28.4577 4.74946 27.7919 4.74946C27.382 4.74946 26.665 5.00551 26.665 5.92551V31.491C26.665 32.4114 27.382 32.6663 27.7919 32.6663C28.4581 32.6663 28.9188 32.1038 28.9188 31.491V5.92551Z" fill="#16325C"/>
<path fill-rule="evenodd" clip-rule="evenodd" d="M38.8557 0.812256H50.1254C55.1456 0.812256 55.4531 4.69833 55.4531 7.20382V12.9303C55.4531 16.816 52.7379 17.8901 50.5861 17.7875V18.1454C55.4015 18.0431 55.4531 21.7247 55.4531 23.003V30.2123C55.4531 32.7178 55.1456 36.6039 50.1254 36.6039H38.8557V0.812256ZM46.9495 16.2028C47.718 16.2028 48.2811 15.5384 48.2811 14.4131V6.5391C48.2811 5.41418 47.718 4.74946 46.9495 4.74946H46.0277V16.2028H46.9495ZM46.9495 32.6663C47.718 32.6663 48.2811 32.0011 48.2811 30.8774V21.9296C48.2811 20.8043 47.718 20.14 46.9495 20.14H46.0277V32.6663H46.9495Z" fill="#16325C"/>
<path fill-rule="evenodd" clip-rule="evenodd" d="M58.4602 0.812256H65.6322V14.0548H69.7303C74.7509 14.0548 75.058 17.9409 75.058 20.4464V30.2123C75.058 32.7178 74.7509 36.6039 69.7303 36.6039H58.4602V0.812256ZM66.5543 32.6663C67.3221 32.6663 67.886 32.0011 67.886 30.8774V19.782C67.886 18.6571 67.3221 17.992 66.5543 17.992H65.6322V32.6663H66.5543ZM77.3114 0.812256H84.483V36.6039H77.3114V0.812256Z" fill="#16325C"/>
<path fill-rule="evenodd" clip-rule="evenodd" d="M87.8645 0.812256H102.514V4.74907H95.0353V16.7223H102.514V20.6583H95.0353V32.6663H102.514V36.6039H87.8645V0.812256Z" fill="#16325C"/>
<path fill-rule="evenodd" clip-rule="evenodd" d="M122.444 0.812256H129.615V18.6571H129.872L132.843 0.812256H140.014V36.6039H132.843V18.7594H132.587L129.615 36.6039H122.444V0.812256Z" fill="#16325C"/>
<path fill-rule="evenodd" clip-rule="evenodd" d="M149.645 24.5881V31.491C149.645 32.4114 150.362 32.6663 150.772 32.6663C151.438 32.6663 151.899 32.1038 151.899 31.491V22.4917C151.899 21.3667 151.694 20.14 149.03 20.14H147.647V16.2028H149.132C151.181 16.2028 151.899 15.7426 151.899 13.5439V5.92551C151.899 5.31192 151.438 4.74946 150.772 4.74946C150.362 4.74946 149.645 5.00551 149.645 5.92551V12.2656L142.473 15.3335V7.20382C142.473 4.69833 142.78 0.812256 147.801 0.812256H153.743C158.763 0.812256 159.071 4.69833 159.071 7.20382V12.9303C159.071 16.816 156.355 17.8901 154.204 17.7875V18.1454C159.019 18.0431 159.071 21.7247 159.071 23.003V30.2123C159.071 32.7178 158.763 36.6039 153.743 36.6039H147.801C142.78 36.6039 142.473 32.7178 142.473 30.2123V21.5201L149.645 24.5881Z" fill="#16325C"/>
<path fill-rule="evenodd" clip-rule="evenodd" d="M161.528 0.812256H172.798C177.819 0.812256 178.126 4.69833 178.126 7.20382V12.9303C178.126 16.816 175.411 17.8901 173.259 17.7875V18.1454C178.075 18.0431 178.126 21.7247 178.126 23.003V30.2123C178.126 32.7178 177.819 36.6039 172.798 36.6039H161.528V0.812256ZM169.621 16.2028C170.39 16.2028 170.953 15.5384 170.953 14.4131V6.5391C170.953 5.41418 170.39 4.74946 169.621 4.74946H168.7V16.2028H169.621ZM169.621 32.6663C170.39 32.6663 170.953 32.0011 170.953 30.8774V21.9296C170.953 20.8043 170.39 20.14 169.621 20.14H168.7V32.6663H169.621Z" fill="#16325C"/>
<path fill-rule="evenodd" clip-rule="evenodd" d="M180.583 0.812256H195.132V4.74907H187.756V15.8448H195.132V19.782H187.756V32.6663H195.439V36.6039H180.583V0.812256Z" fill="#16325C"/>
<path fill-rule="evenodd" clip-rule="evenodd" d="M213.873 30.2123C213.873 32.7178 213.566 36.6039 208.546 36.6039H202.604C197.584 36.6039 197.277 32.7178 197.277 30.2123V7.20382C197.277 4.69833 197.584 0.812256 202.604 0.812256H208.546C213.566 0.812256 213.873 4.69833 213.873 7.20382V15.3335L206.702 12.2656V5.92551C206.702 5.31192 206.241 4.74946 205.575 4.74946C205.166 4.74946 204.448 5.00551 204.448 5.92551V31.491C204.448 32.4114 205.166 32.6663 205.575 32.6663C206.241 32.6663 206.702 32.1038 206.702 31.491V24.0768L213.873 21.0088V30.2123Z" fill="#16325C"/>
<path fill-rule="evenodd" clip-rule="evenodd" d="M219.047 4.74907H214.744V0.812256H230.522V4.74907H226.219V36.6039H219.047V4.74907Z" fill="#16325C"/>
<path fill-rule="evenodd" clip-rule="evenodd" d="M232.803 0.812256H239.975V18.6571H240.231L243.202 0.812256H250.374V36.6039H243.202V18.7594H242.946L239.975 36.6039H232.803V0.812256Z" fill="#16325C"/>
<path fill-rule="evenodd" clip-rule="evenodd" d="M256.776 22.6451C253.498 22.3383 253.396 19.2703 253.396 18.2988V7.20382C253.396 4.69833 253.703 0.812256 258.723 0.812256H269.993V36.6039H262.821V23.003H262.566L259.851 36.6039H252.423L256.776 22.6451ZM262.821 4.74907H261.848C261.335 4.74907 260.568 5.05625 260.568 6.53871V17.2758C260.568 18.759 261.335 19.0658 261.848 19.0658H262.821V4.74907Z" fill="#16325C"/>
<path fill-rule="evenodd" clip-rule="evenodd" d="M95.0354 4.74902H122.443V16.7203H95.0354V4.74902Z" fill="#F15B47"/>
<path fill-rule="evenodd" clip-rule="evenodd" d="M95.0354 20.656H122.443V32.6647H95.0354V20.656Z" fill="#F15B47"/>
</svg>
