<svg width="21" height="21" viewBox="0 0 21 21" fill="none" xmlns="http://www.w3.org/2000/svg">
<path d="M18.6029 0.180989C18.3904 0.312885 16.4445 2.85188 12.9206 7.60013L7.56535 14.8104L5.11256 11.535C3.65723 9.58956 2.53712 8.18267 2.35725 8.07275C1.39248 7.46823 0.174264 8.35853 0.035272 9.75443C-0.0791918 10.9085 -0.120072 10.8316 3.33837 15.5029C5.39872 18.2727 6.61694 19.8335 6.83769 19.9764C7.23014 20.2401 7.74522 20.2621 8.1622 20.0313C8.57917 19.7895 20.557 3.73118 20.7777 3.10468C20.9903 2.48917 20.974 1.88464 20.7287 1.21417C20.4425 0.455772 20.0255 0.0820671 19.4042 0.0161192C19.0444 -0.0278461 18.8482 0.0161192 18.6029 0.180989Z" fill="#E74381"/>
</svg>
