<svg width="228" height="55" viewBox="0 0 228 55" fill="none" xmlns="http://www.w3.org/2000/svg">
<g clip-path="url(#clip0_203_213)">
<path d="M202.775 51.8331H210.098L228 3.16699H220.677L202.775 51.8331ZM193.171 27.0143C193.171 31.2315 190.73 34.801 186.011 34.801C181.293 34.801 178.689 30.9076 178.689 27.0143C178.689 23.1209 181.293 19.2276 186.011 19.2276C190.568 19.2276 193.171 22.6337 193.171 27.0143ZM186.824 13.7121C182.269 13.7121 179.666 16.1453 178.852 17.1183V14.3598H172.018V51.8331H179.014V37.2341C179.828 38.0452 182.594 40.3164 186.824 40.3164C193.334 40.3164 199.354 35.4486 199.354 27.0143C199.518 18.0912 192.846 13.7121 186.824 13.7121ZM149.397 24.2558C149.559 22.4718 151.349 19.0642 155.581 19.0642C160.3 19.0642 161.114 22.7956 161.276 24.2558H149.397ZM155.743 13.7121C147.769 13.7121 142.399 19.5514 142.399 27.0143C142.399 34.4757 147.769 40.3164 155.906 40.3164C164.042 40.3164 167.461 34.6376 167.461 34.6376L162.253 31.2315C162.253 31.2315 160.463 34.801 155.906 34.801C151.186 34.801 149.233 30.7457 149.233 29.284H167.95C167.95 29.284 168.112 28.1492 168.112 27.8253V27.0143C168.112 19.3895 163.555 13.7121 155.743 13.7121M134.425 39.6673H141.91L132.633 14.3598H125.311L115.872 39.6673H123.521L128.89 23.6067H129.054L134.425 39.6673ZM108.549 27.6619C108.549 30.5823 106.92 34.801 102.201 34.801C97.4812 34.801 95.529 31.0695 95.529 27.5C95.529 23.932 97.4812 20.6863 102.201 20.6863C106.92 20.6863 108.549 24.7416 108.549 27.6619M102.852 14.3598C99.4348 14.3598 96.9939 15.9819 96.3427 16.4691C96.5066 15.6581 97.3187 8.84435 106.431 8.84435H112.128L114.244 3.16699H106.594C96.5051 3.16699 88.692 7.87139 88.692 24.2558C88.692 33.1774 92.5978 40.4769 102.037 40.4769C110.988 40.4769 115.544 33.9884 115.544 27.5C115.544 18.0912 108.547 14.3598 102.85 14.3598M69.4893 25.0669L60.7002 14.5232L60.5377 14.3598H54.5173V39.6673H61.5153V24.905L68.3493 33.5027L68.5133 33.8265H70.3015L77.3009 24.905V39.6673H84.2989V14.3598H78.277L69.4893 25.0669ZM42.1487 29.1221C42.1487 32.5297 40.1965 34.9629 36.4532 34.9629C32.8722 34.9629 32.5474 32.8536 32.5474 32.0425C32.5474 30.0966 34.1747 28.9602 38.2429 28.473C39.3814 28.3111 40.5214 28.3111 41.6599 28.3111H42.1487V29.1221ZM48.6579 33.9884V24.905C48.333 16.9564 44.9145 13.7121 37.7541 13.7121C32.8722 13.7121 29.6176 15.6581 28.4776 16.4691L30.4298 21.6608C30.4298 21.6608 33.361 19.0642 37.1029 19.0642C42.4736 19.0642 41.8224 23.4448 41.8224 23.4448C40.0341 23.4448 25.5494 22.6337 25.5494 32.0425C25.5494 37.2341 29.9425 40.153 34.662 40.153C38.8941 40.153 41.3351 38.0437 41.9863 37.2341C41.9863 37.396 42.1487 39.6673 42.1487 39.6673H48.6579C48.9842 39.6673 48.6579 37.558 48.6579 33.9884M17.5754 15.0089C17.5754 19.2276 13.5071 20.6863 10.7413 20.6863H7.16039V9.16967H10.7413C13.5071 9.33158 17.5754 10.7918 17.5754 15.0089M11.3911 3.16699H0V39.8277H7.32282V26.8509H11.2286C18.7154 26.8509 24.8997 22.959 24.8997 15.0089C24.8997 7.22225 18.7154 3.16699 11.3925 3.16699" fill="#315EFB"/>
</g>
<defs>
<clipPath id="clip0_203_213">
<rect width="228" height="55" fill="white"/>
</clipPath>
</defs>
</svg>
