<svg width="33" height="24" viewBox="0 0 33 24" fill="none" xmlns="http://www.w3.org/2000/svg">
<path d="M5.75775 0.777856C3.61462 1.02869 2.29867 1.56798 1.4339 2.53368C0.218207 3.88817 0.0678128 4.99183 0.14301 12.1782C0.180609 16.9565 0.218207 17.6087 0.431267 18.449C1.04538 20.7692 2.14827 21.9732 4.27886 22.6504C5.95827 23.1897 7.06117 23.2399 17.1501 23.1771C25.7352 23.1395 26.7002 23.1144 27.4898 22.9138C29.4449 22.4121 30.5353 21.6094 31.2497 20.1672C32.0894 18.474 32.127 18.0853 32.127 11.5511C32.127 5.29283 32.0894 4.86642 31.4878 3.51192C31.0617 2.5713 30.1844 1.7561 29.2068 1.39239C27.4397 0.727689 27.4772 0.727689 16.7115 0.690065C11.197 0.677523 6.25906 0.715148 5.75775 0.777856ZM17.2379 9.05531C19.1303 10.0336 20.7847 10.924 20.9225 11.0369C21.2985 11.3504 21.3487 11.9273 21.0479 12.3287C20.7346 12.7175 13.9072 16.3169 13.478 16.3169C13.3151 16.3169 13.149 16.3437 12.8449 16.1514C12.5408 15.959 12.513 15.5555 12.513 15.5555V11.827C12.513 7.93911 12.513 7.86386 12.7887 7.5754C12.9516 7.39982 13.2023 7.28694 13.4279 7.28694C13.666 7.28694 15.0948 7.95165 17.2379 9.05531Z" fill="white"/>
</svg>
