<svg width="76" height="53" viewBox="0 0 76 53" fill="none" xmlns="http://www.w3.org/2000/svg">
<rect width="35.4419" height="27.7092" transform="translate(19.9771 10.9548)" fill="white"/>
<path d="M13.2666 0.21236C8.21724 0.802931 5.11674 2.07266 3.07927 4.34636C0.215003 7.53544 -0.13934 10.134 0.0378316 27.0538C0.126417 38.3042 0.215003 39.8397 0.716988 41.8181C2.16389 47.2809 4.7624 50.1156 9.78225 51.7101C13.7391 52.9799 16.3376 53.098 40.1081 52.9503C60.3351 52.8617 62.6088 52.8027 64.4691 52.3302C69.0756 51.1491 71.6445 49.2593 73.3277 45.8635C75.3061 41.8771 75.3947 40.9617 75.3947 25.5774C75.3947 10.8426 75.3061 9.83867 73.8887 6.64958C72.8847 4.43494 70.8177 2.51559 68.5145 1.65926C64.351 0.094246 64.4396 0.0942467 39.0746 0.00566107C26.082 -0.0238675 14.4478 0.0647174 13.2666 0.21236ZM40.3148 19.7012C44.7736 22.0044 48.6713 24.1009 48.9961 24.3667C49.882 25.1049 50.0001 26.4632 49.2914 27.4081C48.5532 28.3235 32.4674 36.7982 31.4562 36.7982C31.0723 36.7982 30.6809 36.8614 29.9645 36.4085C29.2482 35.9557 29.1825 35.0057 29.1825 35.0057V26.227C29.1825 17.0732 29.1825 16.896 29.8321 16.2168C30.216 15.8034 30.8066 15.5377 31.3381 15.5377C31.8991 15.5377 35.2654 17.1027 40.3148 19.7012Z" fill="url(#paint0_linear_203_171)"/>
<defs>
<linearGradient id="paint0_linear_203_171" x1="37.6973" y1="53" x2="37.6973" y2="0" gradientUnits="userSpaceOnUse">
<stop stop-color="#FAB900"/>
<stop offset="0.484375" stop-color="#E74381"/>
<stop offset="1" stop-color="#7F4492"/>
</linearGradient>
</defs>
</svg>
